<svg xmlns="http://www.w3.org/2000/svg" xmlns:xlink="http://www.w3.org/1999/xlink" width="1500" height="300" viewBox="0 0 1500 300"><defs><style>.cls-1{isolation:isolate;}.cls-2{fill:red;}.cls-3{fill:#e3d1b8;}.cls-4{fill:#855f3e;}.cls-5{fill:#5d412a;}.cls-6{fill:#b18e68;}.cls-7{fill:#392517;}.cls-8{fill:url(#linear-gradient);}.cls-9{fill:url(#linear-gradient-2);}.cls-10{fill:url(#linear-gradient-4);}.cls-11{fill:url(#linear-gradient-6);}.cls-12{fill:url(#linear-gradient-8);}.cls-13{fill:url(#linear-gradient-9);}.cls-14{fill:url(#linear-gradient-10);}.cls-15{fill:url(#linear-gradient-11);}.cls-16{fill:url(#linear-gradient-12);}.cls-109,.cls-17,.cls-41,.cls-63,.cls-86{opacity:0.7;mix-blend-mode:soft-light;}.cls-17{fill:url(#linear-gradient-13);}.cls-18{fill:url(#linear-gradient-14);}.cls-19{fill:url(#linear-gradient-15);}.cls-20{fill:url(#linear-gradient-16);}.cls-21{fill:url(#linear-gradient-17);}.cls-22{fill:url(#linear-gradient-18);}.cls-23{fill:url(#linear-gradient-19);}.cls-24{fill:url(#linear-gradient-20);}.cls-25{fill:url(#linear-gradient-21);}.cls-26{fill:url(#linear-gradient-22);}.cls-27{fill:url(#linear-gradient-23);}.cls-28{fill:url(#linear-gradient-24);}.cls-29{fill:url(#linear-gradient-25);}.cls-30{fill:#29abe2;}.cls-31{fill:#662d91;}.cls-32{fill:url(#linear-gradient-26);}.cls-33{fill:url(#linear-gradient-27);}.cls-34{fill:url(#linear-gradient-29);}.cls-35{fill:url(#linear-gradient-31);}.cls-36{fill:url(#linear-gradient-33);}.cls-37{fill:url(#linear-gradient-34);}.cls-38{fill:url(#linear-gradient-35);}.cls-39{fill:url(#linear-gradient-36);}.cls-40{fill:url(#linear-gradient-37);}.cls-41{fill:url(#linear-gradient-38);}.cls-42{fill:url(#linear-gradient-39);}.cls-43{fill:url(#linear-gradient-40);}.cls-44{fill:url(#linear-gradient-41);}.cls-45{fill:url(#linear-gradient-42);}.cls-46{fill:url(#linear-gradient-43);}.cls-47{fill:url(#linear-gradient-44);}.cls-48{fill:url(#linear-gradient-45);}.cls-49{fill:url(#linear-gradient-46);}.cls-50{fill:url(#linear-gradient-47);}.cls-51{fill:url(#linear-gradient-48);}.cls-52{fill:url(#linear-gradient-49);}.cls-53{fill:url(#linear-gradient-50);}.cls-54{fill:url(#linear-gradient-51);}.cls-55{fill:url(#linear-gradient-52);}.cls-56{fill:url(#linear-gradient-54);}.cls-57{fill:url(#linear-gradient-56);}.cls-58{fill:url(#linear-gradient-58);}.cls-59{fill:url(#linear-gradient-59);}.cls-60{fill:url(#linear-gradient-60);}.cls-61{fill:url(#linear-gradient-61);}.cls-62{fill:url(#linear-gradient-62);}.cls-63{fill:url(#linear-gradient-63);}.cls-64{fill:url(#linear-gradient-64);}.cls-65{fill:url(#linear-gradient-65);}.cls-66{fill:url(#linear-gradient-66);}.cls-67{fill:url(#linear-gradient-67);}.cls-68{fill:url(#linear-gradient-68);}.cls-69{fill:url(#linear-gradient-69);}.cls-70{fill:url(#linear-gradient-70);}.cls-71{fill:url(#linear-gradient-71);}.cls-72{fill:url(#linear-gradient-72);}.cls-73{fill:url(#linear-gradient-73);}.cls-74{fill:url(#linear-gradient-74);}.cls-75{fill:url(#linear-gradient-75);}.cls-76{fill:#22b573;}.cls-77{fill:url(#linear-gradient-76);}.cls-78{fill:url(#linear-gradient-77);}.cls-79{fill:url(#linear-gradient-79);}.cls-80{fill:url(#linear-gradient-81);}.cls-81{fill:url(#linear-gradient-83);}.cls-82{fill:url(#linear-gradient-84);}.cls-83{fill:url(#linear-gradient-85);}.cls-84{fill:url(#linear-gradient-86);}.cls-85{fill:url(#linear-gradient-87);}.cls-86{fill:url(#linear-gradient-88);}.cls-87{fill:url(#linear-gradient-89);}.cls-88{fill:url(#linear-gradient-90);}.cls-89{fill:url(#linear-gradient-91);}.cls-90{fill:url(#linear-gradient-92);}.cls-91{fill:url(#linear-gradient-93);}.cls-92{fill:url(#linear-gradient-94);}.cls-93{fill:url(#linear-gradient-95);}.cls-94{fill:url(#linear-gradient-96);}.cls-95{fill:url(#linear-gradient-97);}.cls-96{fill:url(#linear-gradient-98);}.cls-97{fill:url(#linear-gradient-99);}.cls-98{fill:url(#linear-gradient-100);}.cls-99{fill:#009245;}.cls-100{fill:url(#linear-gradient-101);}.cls-101{fill:url(#linear-gradient-102);}.cls-102{fill:url(#linear-gradient-104);}.cls-103{fill:url(#linear-gradient-106);}.cls-104{fill:url(#linear-gradient-108);}.cls-105{fill:url(#linear-gradient-109);}.cls-106{fill:url(#linear-gradient-110);}.cls-107{fill:url(#linear-gradient-111);}.cls-108{fill:url(#linear-gradient-112);}.cls-109{fill:url(#linear-gradient-113);}.cls-110{fill:url(#linear-gradient-114);}.cls-111{fill:url(#linear-gradient-115);}.cls-112{fill:url(#linear-gradient-116);}.cls-113{fill:url(#linear-gradient-117);}.cls-114{fill:url(#linear-gradient-118);}.cls-115{fill:url(#linear-gradient-119);}.cls-116{fill:url(#linear-gradient-120);}.cls-117{fill:url(#linear-gradient-121);}.cls-118{fill:url(#linear-gradient-122);}.cls-119{fill:url(#linear-gradient-123);}.cls-120{fill:url(#linear-gradient-124);}.cls-121{fill:url(#linear-gradient-125);}</style><linearGradient id="linear-gradient" x1="1288.32" y1="86.2" x2="1289.35" y2="86.2" gradientUnits="userSpaceOnUse"><stop offset="0" stop-color="#c69c6d"/><stop offset="1"/></linearGradient><linearGradient id="linear-gradient-2" x1="1291.45" y1="82.13" x2="1291.45" y2="82.13" xlink:href="#linear-gradient"/><linearGradient id="linear-gradient-4" x1="1291.45" y1="81.78" x2="1295.39" y2="81.78" xlink:href="#linear-gradient"/><linearGradient id="linear-gradient-6" x1="1268.28" y1="23.4" x2="1268.46" y2="23.4" xlink:href="#linear-gradient"/><linearGradient id="linear-gradient-8" x1="1322.97" y1="87.23" x2="1348.32" y2="87.23" xlink:href="#linear-gradient"/><linearGradient id="linear-gradient-9" x1="1302.09" y1="90.52" x2="1323.25" y2="90.52" xlink:href="#linear-gradient"/><linearGradient id="linear-gradient-10" x1="1213.74" y1="3.33" x2="1250.2" y2="3.33" gradientTransform="translate(61.8 -16.55) rotate(2.64)" xlink:href="#linear-gradient"/><linearGradient id="linear-gradient-11" x1="1288.84" y1="66.58" x2="1301.84" y2="66.58" xlink:href="#linear-gradient"/><linearGradient id="linear-gradient-12" x1="1288.83" y1="65.41" x2="1338.6" y2="65.41" xlink:href="#linear-gradient"/><linearGradient id="linear-gradient-13" x1="1288.83" y1="64.44" x2="1337.55" y2="64.44" gradientUnits="userSpaceOnUse"><stop offset="0" stop-color="#fff" stop-opacity="0"/><stop offset="1" stop-color="#fff" stop-opacity="0.6"/></linearGradient><linearGradient id="linear-gradient-14" x1="1261.7" y1="79.25" x2="1301.84" y2="79.25" xlink:href="#linear-gradient"/><linearGradient id="linear-gradient-15" x1="1267.18" y1="78.58" x2="1290.71" y2="78.58" xlink:href="#linear-gradient"/><linearGradient id="linear-gradient-16" x1="1267.19" y1="83.92" x2="1272.02" y2="83.92" xlink:href="#linear-gradient"/><linearGradient id="linear-gradient-17" x1="1270.85" y1="83.95" x2="1271.68" y2="83.95" xlink:href="#linear-gradient"/><linearGradient id="linear-gradient-18" x1="1271.55" y1="83.87" x2="1272.2" y2="83.87" xlink:href="#linear-gradient"/><linearGradient id="linear-gradient-19" x1="1278.17" y1="91.42" x2="1278.56" y2="91.42" xlink:href="#linear-gradient"/><linearGradient id="linear-gradient-20" x1="1278.48" y1="91.4" x2="1278.87" y2="91.4" xlink:href="#linear-gradient"/><linearGradient id="linear-gradient-21" x1="1278.8" y1="91.37" x2="1279.14" y2="91.37" xlink:href="#linear-gradient"/><linearGradient id="linear-gradient-22" x1="1279.82" y1="89.87" x2="1287.84" y2="89.87" xlink:href="#linear-gradient"/><linearGradient id="linear-gradient-23" x1="1279.46" y1="91.27" x2="1279.9" y2="91.27" xlink:href="#linear-gradient"/><linearGradient id="linear-gradient-24" x1="1261.7" y1="72.08" x2="1301.84" y2="72.08" xlink:href="#linear-gradient"/><linearGradient id="linear-gradient-25" x1="1261.72" y1="77.15" x2="1290.72" y2="77.15" xlink:href="#linear-gradient"/><linearGradient id="linear-gradient-26" x1="988.32" y1="86.2" x2="989.35" y2="86.2" xlink:href="#linear-gradient"/><linearGradient id="linear-gradient-27" x1="991.45" y1="82.13" x2="991.45" y2="82.13" xlink:href="#linear-gradient"/><linearGradient id="linear-gradient-29" x1="991.45" y1="81.78" x2="995.39" y2="81.78" xlink:href="#linear-gradient"/><linearGradient id="linear-gradient-31" x1="968.28" y1="23.4" x2="968.46" y2="23.4" xlink:href="#linear-gradient"/><linearGradient id="linear-gradient-33" x1="1022.97" y1="87.23" x2="1048.32" y2="87.23" xlink:href="#linear-gradient"/><linearGradient id="linear-gradient-34" x1="1002.09" y1="90.52" x2="1023.25" y2="90.52" xlink:href="#linear-gradient"/><linearGradient id="linear-gradient-35" x1="914.06" y1="17.17" x2="950.52" y2="17.17" gradientTransform="translate(61.8 -16.55) rotate(2.64)" xlink:href="#linear-gradient"/><linearGradient id="linear-gradient-36" x1="988.84" y1="66.58" x2="1001.84" y2="66.58" xlink:href="#linear-gradient"/><linearGradient id="linear-gradient-37" x1="988.83" y1="65.41" x2="1038.6" y2="65.41" xlink:href="#linear-gradient"/><linearGradient id="linear-gradient-38" x1="988.83" y1="64.44" x2="1037.55" y2="64.44" xlink:href="#linear-gradient-13"/><linearGradient id="linear-gradient-39" x1="961.7" y1="79.25" x2="1001.84" y2="79.25" xlink:href="#linear-gradient"/><linearGradient id="linear-gradient-40" x1="967.18" y1="78.58" x2="990.71" y2="78.58" xlink:href="#linear-gradient"/><linearGradient id="linear-gradient-41" x1="967.19" y1="83.92" x2="972.02" y2="83.92" xlink:href="#linear-gradient"/><linearGradient id="linear-gradient-42" x1="970.85" y1="83.95" x2="971.68" y2="83.95" xlink:href="#linear-gradient"/><linearGradient id="linear-gradient-43" x1="971.55" y1="83.87" x2="972.2" y2="83.87" xlink:href="#linear-gradient"/><linearGradient id="linear-gradient-44" x1="978.17" y1="91.42" x2="978.56" y2="91.42" xlink:href="#linear-gradient"/><linearGradient id="linear-gradient-45" x1="978.48" y1="91.4" x2="978.87" y2="91.4" xlink:href="#linear-gradient"/><linearGradient id="linear-gradient-46" x1="978.8" y1="91.37" x2="979.14" y2="91.37" xlink:href="#linear-gradient"/><linearGradient id="linear-gradient-47" x1="979.82" y1="89.87" x2="987.84" y2="89.87" xlink:href="#linear-gradient"/><linearGradient id="linear-gradient-48" x1="979.46" y1="91.27" x2="979.9" y2="91.27" xlink:href="#linear-gradient"/><linearGradient id="linear-gradient-49" x1="961.7" y1="72.08" x2="1001.84" y2="72.08" xlink:href="#linear-gradient"/><linearGradient id="linear-gradient-50" x1="961.72" y1="77.15" x2="990.72" y2="77.15" xlink:href="#linear-gradient"/><linearGradient id="linear-gradient-51" x1="688.32" y1="86.2" x2="689.35" y2="86.2" xlink:href="#linear-gradient"/><linearGradient id="linear-gradient-52" x1="691.45" y1="82.13" x2="691.45" y2="82.13" xlink:href="#linear-gradient"/><linearGradient id="linear-gradient-54" x1="691.45" y1="81.78" x2="695.39" y2="81.78" xlink:href="#linear-gradient"/><linearGradient id="linear-gradient-56" x1="668.28" y1="23.4" x2="668.46" y2="23.4" xlink:href="#linear-gradient"/><linearGradient id="linear-gradient-58" x1="722.97" y1="87.23" x2="748.32" y2="87.23" xlink:href="#linear-gradient"/><linearGradient id="linear-gradient-59" x1="702.09" y1="90.52" x2="723.25" y2="90.52" xlink:href="#linear-gradient"/><linearGradient id="linear-gradient-60" x1="614.38" y1="31.02" x2="650.84" y2="31.02" gradientTransform="translate(61.8 -16.55) rotate(2.64)" xlink:href="#linear-gradient"/><linearGradient id="linear-gradient-61" x1="688.84" y1="66.58" x2="701.84" y2="66.58" xlink:href="#linear-gradient"/><linearGradient id="linear-gradient-62" x1="688.83" y1="65.41" x2="738.6" y2="65.41" xlink:href="#linear-gradient"/><linearGradient id="linear-gradient-63" x1="688.83" y1="64.44" x2="737.55" y2="64.44" xlink:href="#linear-gradient-13"/><linearGradient id="linear-gradient-64" x1="661.7" y1="79.25" x2="701.84" y2="79.25" xlink:href="#linear-gradient"/><linearGradient id="linear-gradient-65" x1="667.18" y1="78.58" x2="690.71" y2="78.58" xlink:href="#linear-gradient"/><linearGradient id="linear-gradient-66" x1="667.19" y1="83.92" x2="672.02" y2="83.92" xlink:href="#linear-gradient"/><linearGradient id="linear-gradient-67" x1="670.85" y1="83.95" x2="671.68" y2="83.95" xlink:href="#linear-gradient"/><linearGradient id="linear-gradient-68" x1="671.55" y1="83.87" x2="672.2" y2="83.87" xlink:href="#linear-gradient"/><linearGradient id="linear-gradient-69" x1="678.17" y1="91.42" x2="678.56" y2="91.42" xlink:href="#linear-gradient"/><linearGradient id="linear-gradient-70" x1="678.48" y1="91.4" x2="678.87" y2="91.4" xlink:href="#linear-gradient"/><linearGradient id="linear-gradient-71" x1="678.8" y1="91.37" x2="679.14" y2="91.37" xlink:href="#linear-gradient"/><linearGradient id="linear-gradient-72" x1="679.82" y1="89.87" x2="687.84" y2="89.87" xlink:href="#linear-gradient"/><linearGradient id="linear-gradient-73" x1="679.46" y1="91.27" x2="679.9" y2="91.27" xlink:href="#linear-gradient"/><linearGradient id="linear-gradient-74" x1="661.7" y1="72.08" x2="701.84" y2="72.08" xlink:href="#linear-gradient"/><linearGradient id="linear-gradient-75" x1="661.72" y1="77.15" x2="690.72" y2="77.15" xlink:href="#linear-gradient"/><linearGradient id="linear-gradient-76" x1="388.32" y1="86.2" x2="389.35" y2="86.2" xlink:href="#linear-gradient"/><linearGradient id="linear-gradient-77" x1="391.45" y1="82.13" x2="391.45" y2="82.13" xlink:href="#linear-gradient"/><linearGradient id="linear-gradient-79" x1="391.45" y1="81.78" x2="395.39" y2="81.78" xlink:href="#linear-gradient"/><linearGradient id="linear-gradient-81" x1="368.28" y1="23.4" x2="368.46" y2="23.4" xlink:href="#linear-gradient"/><linearGradient id="linear-gradient-83" x1="422.97" y1="87.23" x2="448.32" y2="87.23" xlink:href="#linear-gradient"/><linearGradient id="linear-gradient-84" x1="402.09" y1="90.52" x2="423.25" y2="90.52" xlink:href="#linear-gradient"/><linearGradient id="linear-gradient-85" x1="314.7" y1="44.86" x2="351.16" y2="44.86" gradientTransform="translate(61.8 -16.55) rotate(2.64)" xlink:href="#linear-gradient"/><linearGradient id="linear-gradient-86" x1="388.84" y1="66.58" x2="401.84" y2="66.58" xlink:href="#linear-gradient"/><linearGradient id="linear-gradient-87" x1="388.83" y1="65.41" x2="438.6" y2="65.41" xlink:href="#linear-gradient"/><linearGradient id="linear-gradient-88" x1="388.83" y1="64.44" x2="437.55" y2="64.44" xlink:href="#linear-gradient-13"/><linearGradient id="linear-gradient-89" x1="361.7" y1="79.25" x2="401.84" y2="79.25" xlink:href="#linear-gradient"/><linearGradient id="linear-gradient-90" x1="367.18" y1="78.58" x2="390.71" y2="78.58" xlink:href="#linear-gradient"/><linearGradient id="linear-gradient-91" x1="367.19" y1="83.92" x2="372.02" y2="83.92" xlink:href="#linear-gradient"/><linearGradient id="linear-gradient-92" x1="370.85" y1="83.95" x2="371.68" y2="83.95" xlink:href="#linear-gradient"/><linearGradient id="linear-gradient-93" x1="371.55" y1="83.87" x2="372.2" y2="83.87" xlink:href="#linear-gradient"/><linearGradient id="linear-gradient-94" x1="378.17" y1="91.42" x2="378.56" y2="91.42" xlink:href="#linear-gradient"/><linearGradient id="linear-gradient-95" x1="378.48" y1="91.4" x2="378.87" y2="91.4" xlink:href="#linear-gradient"/><linearGradient id="linear-gradient-96" x1="378.8" y1="91.37" x2="379.14" y2="91.37" xlink:href="#linear-gradient"/><linearGradient id="linear-gradient-97" x1="379.82" y1="89.87" x2="387.84" y2="89.87" xlink:href="#linear-gradient"/><linearGradient id="linear-gradient-98" x1="379.46" y1="91.27" x2="379.9" y2="91.27" xlink:href="#linear-gradient"/><linearGradient id="linear-gradient-99" x1="361.7" y1="72.08" x2="401.84" y2="72.08" xlink:href="#linear-gradient"/><linearGradient id="linear-gradient-100" x1="361.72" y1="77.15" x2="390.72" y2="77.15" xlink:href="#linear-gradient"/><linearGradient id="linear-gradient-101" x1="88.32" y1="86.2" x2="89.35" y2="86.2" xlink:href="#linear-gradient"/><linearGradient id="linear-gradient-102" x1="91.45" y1="82.13" x2="91.45" y2="82.13" xlink:href="#linear-gradient"/><linearGradient id="linear-gradient-104" x1="91.45" y1="81.78" x2="95.39" y2="81.78" xlink:href="#linear-gradient"/><linearGradient id="linear-gradient-106" x1="68.28" y1="23.4" x2="68.46" y2="23.4" xlink:href="#linear-gradient"/><linearGradient id="linear-gradient-108" x1="122.97" y1="87.23" x2="148.32" y2="87.23" xlink:href="#linear-gradient"/><linearGradient id="linear-gradient-109" x1="102.09" y1="90.52" x2="123.25" y2="90.52" xlink:href="#linear-gradient"/><linearGradient id="linear-gradient-110" x1="15.02" y1="58.7" x2="51.48" y2="58.7" gradientTransform="translate(61.8 -16.55) rotate(2.64)" xlink:href="#linear-gradient"/><linearGradient id="linear-gradient-111" x1="88.84" y1="66.58" x2="101.84" y2="66.58" xlink:href="#linear-gradient"/><linearGradient id="linear-gradient-112" x1="88.83" y1="65.41" x2="138.6" y2="65.41" xlink:href="#linear-gradient"/><linearGradient id="linear-gradient-113" x1="88.83" y1="64.44" x2="137.55" y2="64.44" xlink:href="#linear-gradient-13"/><linearGradient id="linear-gradient-114" x1="61.7" y1="79.25" x2="101.84" y2="79.25" xlink:href="#linear-gradient"/><linearGradient id="linear-gradient-115" x1="67.18" y1="78.58" x2="90.71" y2="78.58" xlink:href="#linear-gradient"/><linearGradient id="linear-gradient-116" x1="67.19" y1="83.92" x2="72.02" y2="83.92" xlink:href="#linear-gradient"/><linearGradient id="linear-gradient-117" x1="70.85" y1="83.95" x2="71.68" y2="83.95" xlink:href="#linear-gradient"/><linearGradient id="linear-gradient-118" x1="71.55" y1="83.87" x2="72.2" y2="83.87" xlink:href="#linear-gradient"/><linearGradient id="linear-gradient-119" x1="78.17" y1="91.42" x2="78.56" y2="91.42" xlink:href="#linear-gradient"/><linearGradient id="linear-gradient-120" x1="78.48" y1="91.4" x2="78.87" y2="91.4" xlink:href="#linear-gradient"/><linearGradient id="linear-gradient-121" x1="78.8" y1="91.37" x2="79.14" y2="91.37" xlink:href="#linear-gradient"/><linearGradient id="linear-gradient-122" x1="79.82" y1="89.87" x2="87.84" y2="89.87" xlink:href="#linear-gradient"/><linearGradient id="linear-gradient-123" x1="79.46" y1="91.27" x2="79.9" y2="91.27" xlink:href="#linear-gradient"/><linearGradient id="linear-gradient-124" x1="61.7" y1="72.08" x2="101.84" y2="72.08" xlink:href="#linear-gradient"/><linearGradient id="linear-gradient-125" x1="61.72" y1="77.15" x2="90.72" y2="77.15" xlink:href="#linear-gradient"/></defs><title>logo_spritesheet</title><g class="cls-1"><g id="Layer_3" data-name="Layer 3"><rect class="cls-2" x="1200" width="300" height="300"/><circle class="cls-3" cx="1350" cy="150" r="134.86"/><rect class="cls-4" x="1293.25" y="93.04" width="20.47" height="113.91"/><rect class="cls-4" x="1366.35" y="112.95" width="26.02" height="94.01"/><polygon class="cls-5" points="1293.26 206.96 1319.17 206.96 1392.18 112.95 1366.27 112.95 1293.26 206.96"/><polygon class="cls-6" points="1366.45 206.96 1392.36 206.96 1465.38 112.95 1439.46 112.95 1366.45 206.96"/><polygon class="cls-5" points="1250.52 93.04 1234.62 113.51 1234.62 113.51 1356.09 113.51 1371.98 93.04 1250.52 93.04"/><path class="cls-7" d="M1345.14,56.52a6.15,6.15,0,0,1-.06.87,6.17,6.17,0,0,1-6.13,5.32,7.2,7.2,0,0,1-1-.08,6.2,6.2,0,0,1-5.08-5.21,6.56,6.56,0,0,1-.07-.9,6.18,6.18,0,0,1,4.8-6h0a4.94,4.94,0,0,1,.87-.14l.53,0A6.19,6.19,0,0,1,1345.14,56.52Z"/><circle class="cls-7" cx="1343.81" cy="60.26" r="3.13"/><path class="cls-8" d="M1289.35,85.61a5.77,5.77,0,0,1-1,1.17"/><path class="cls-9" d="M1291.45,82.12v0"/><path class="cls-8" d="M1289.35,85.61a5.77,5.77,0,0,1-1,1.17"/><path class="cls-10" d="M1295.39,81.41h0a15.5,15.5,0,0,1-3.94.71v0"/><path class="cls-8" d="M1289.35,85.61a5.77,5.77,0,0,1-1,1.17"/><path class="cls-11" d="M1268.46,23.24l-.06.17-.12.14Z"/><path class="cls-11" d="M1268.46,23.24l-.06.17-.12.14Z"/><path class="cls-12" d="M1323.61,68.3s-.75,12.52-.62,15.83,9.07,17.44,9.88,22.4a43.73,43.73,0,0,0,4.25,2.37c.38,0,9,.32,9,.32l2.25-.69-5.25-2.19-3.76-.5-1.94-1s-7.44-19.65-6.88-21.9l3.76-16.26A7.79,7.79,0,0,0,1323.61,68.3Z"/><path class="cls-13" d="M1318.61,77.63a64.71,64.71,0,0,1-4.26,7.13l-4.56,10.69-7.26,2.88-.44,6.13s.06,1.25.94,1.5c0,0,1.25.19,1.44,0,0,0-1.25-.43-1-1.25l.94-3.81,6.25-.94s2.19-.94,2.75-2.07L1323,82.13l.28-7.13Z"/><path class="cls-14" d="M1304.48,37.64a21.4,21.4,0,0,0-9.36-13.13,15.34,15.34,0,0,0-5.4-1.24H1289a15.52,15.52,0,0,0-9,2.86,15.82,15.82,0,0,0-3.88,4,1.22,1.22,0,0,0-.07.17,24.67,24.67,0,0,0-1.76,8.14,24.89,24.89,0,0,0,13.32,23.21,15.43,15.43,0,0,1,5.72-2.39,24.85,24.85,0,0,1-8.15-5.43l-.62-.64h0a15.52,15.52,0,0,1,1.36-27.47,14.84,14.84,0,0,1,1.89,0,15.63,15.63,0,0,1,5.45,1.25c3.69,1.08,6.47,6.66,6.47,6.66,3,2.73,7.21,30.14,7.21,30.14a1.52,1.52,0,0,0,2.67.13C1310,60.19,1304.48,37.64,1304.48,37.64Z"/><path class="cls-15" d="M1288.84,55.76h0c.13,12.88,13,21.64,13,21.64l-1.32-17.72A40,40,0,0,1,1288.84,55.76Z"/><path class="cls-16" d="M1338.6,55.51a24.89,24.89,0,0,1-36.76,21.89,35.74,35.74,0,0,1-10.93-12.84,21.49,21.49,0,0,1-2.08-8.8h0a40,40,0,0,0,11.68,3.92,40.56,40.56,0,0,0,6.84.58,40.21,40.21,0,0,0,19-4.75,28.74,28.74,0,0,0,3.75-.23.05.05,0,0,0,0,0,17.53,17.53,0,0,1,4.7-3.63h0a6.11,6.11,0,0,1,2.33-1.1h0l.17,0a4.87,4.87,0,0,1,.65-.1.06.06,0,0,1,.06.05A24.82,24.82,0,0,1,1338.6,55.51Z"/><path class="cls-17" d="M1337.55,53.49a24.89,24.89,0,0,1-36.76,21.89,36.47,36.47,0,0,1-9.88-10.82,21.49,21.49,0,0,1-2.08-8.8h0a40,40,0,0,0,11.68,3.92,40.56,40.56,0,0,0,6.84.58,40.21,40.21,0,0,0,19-4.75,28.74,28.74,0,0,0,3.75-.23.05.05,0,0,0,0,0,17.53,17.53,0,0,1,4.7-3.63h0a6.11,6.11,0,0,1,2.33-1.1h0l.17,0A24.62,24.62,0,0,1,1337.55,53.49Z"/><path class="cls-18" d="M1295.77,102c-4.75,1.88-9.88-.41-9.88-.41,5-3.22,12-20.2,12-20.2,0-.36,0-.72,0-1.08a15.54,15.54,0,0,0,3.89-2.93s-12.87-8.76-13-21.64h0a40.26,40.26,0,0,1-5-3.06l5,12.71,1.87,19.92a23.13,23.13,0,0,1-4.5,3.72c-1.45,5.1-6.14,10.53-6.14,10.53-1,3.82,4.44,5.88,4.44,5.88,2.57,1.13,14.52-.93,14.52-.93C1299,103.46,1295.77,102,1295.77,102Z"/><path class="cls-19" d="M1280.35,78.2c.24.27.43.52.6.75l.12-.14C1280.83,78.62,1280.59,78.41,1280.35,78.2Z"/><path class="cls-20" d="M1268.27,84h0c-.36,0-.71-.08-1.06-.13h0C1267.56,83.9,1267.92,84,1268.27,84Z"/><path class="cls-21" d="M1270.85,84l.23,0-.17,0Z"/><path class="cls-22" d="M1271.55,83.88l.18,0-.13,0Z"/><path class="cls-23" d="M1278.17,91.43l.31,0h0Z"/><path class="cls-24" d="M1278.48,91.41l.32,0h-.06Z"/><path class="cls-25" d="M1279.07,91.35H1279l-.2,0Z"/><path class="cls-26" d="M1286.35,88.49h0a15.39,15.39,0,0,1-6.53,2.74,4.21,4.21,0,0,0,.49-.09l.11,0,.21,0,.3-.07h0l.29-.07.24-.07.35-.1.28-.09.35-.12.21-.08h0l.23-.09,0,0,.53-.22,0,0,.26-.11.27-.13.53-.28.26-.14.26-.15.25-.15h0l.24-.16.24-.16.25-.17Z"/><path class="cls-27" d="M1279.46,91.3l.36-.06h0l-.18,0Z"/><path class="cls-28" d="M1290.71,85.33a22.91,22.91,0,0,1-4.48,3.7l0,0c0-.19.1-.37.14-.55h0l-.24.17-.25.17-.24.16-.24.16h0l-.25.15-.26.15-.26.14-.53.28-.27.13-.26.11,0,0-.53.22,0,0-.23.09h0l-.21.08-.35.12-.28.09-.35.1-.24.07-.29.07h0l-.3.07-.1,0-.11,0-.11,0h0l-.2,0h0l-.26,0h0l-.09,0h-.09l-.14,0h-.08l-.21,0H1279l-.2,0h-.06l-.26,0h0l-.28,0h0l-.3,0h-1.5l-.21,0h-.06l-.25,0-.18,0-.26,0-.26,0-.24,0h0l-.26,0-.21,0h0l-.79-.16-.25-.07-.25-.06-.74-.23-.17-.05a15.75,15.75,0,0,1-1.85-.78l-.16-.08-.31-.16-.26-.15c-.2-.11-.39-.22-.57-.34l-.2-.12h0l-.24-.16-.5-.34c-.31-.23-.6-.46-.9-.71h0V83.85h0c.35.05.7.1,1.06.13H1271l.26,0h.3l.18,0h0l.17,0h.11l.14,0,.29,0h0l.23,0s0,0,0,0l.24,0,.29-.07.36-.09h0c3.72-.34,7.61-1,7.41-2,0,0,1.49-.25-.11-2.45h0l.12-.14c-.24-.19-.48-.4-.72-.61h0c-.24-.26-12.6-14.14,3.49-25.5h0l5,12.7Z"/><path class="cls-29" d="M1286.37,88.49h0a15.28,15.28,0,0,1-5.42,2.51h0l-.3.07-.1,0-.22,0h0l-.2,0h0l-.23,0h0l-.09,0h-.09l-.14,0h-.08l-.21,0H1279l-.2,0h-.06l-.26,0h0l-.28,0h0l-.3,0h-1.5l-.21,0h-.06l-.25,0-.18,0-.26,0-.5-.06h0l-.47-.08h0a15.51,15.51,0,0,1-6.28-2.7c-.31-.23-.62-.47-.91-.72h0c0,.31-.08.63-.11.94s0,.9,0,1.35A15.45,15.45,0,0,0,1269.2,98a16,16,0,0,0,1.15,1.67,2.62,2.62,0,0,1-1.14,1.93,14.66,14.66,0,0,1-2.45-1.84,15.44,15.44,0,0,1-5-10.25c0-.39,0-.79,0-1.19V88a15.41,15.41,0,0,1,1.12-5.49l.44.2a15.19,15.19,0,0,0,3.93,1.12h0c.35.05.71.1,1.06.13h2.64l.34,0h.35a16.91,16.91,0,0,0,2.05-.42h0c3.72-.34,7.61-1,7.41-2,0,0,1.49-.25-.11-2.45h0l.13-.14c-.25-.19-.49-.4-.72-.61,0,0-12.75-14,3.47-25.5h0l5,12.7,1.87,19.93"/><rect class="cls-30" x="900" width="300" height="300"/><circle class="cls-3" cx="1050" cy="150" r="134.86"/><rect class="cls-4" x="993.25" y="93.04" width="20.47" height="113.91"/><polygon class="cls-5" points="950.52 93.04 934.62 113.51 934.62 113.51 1056.09 113.51 1071.98 93.04 950.52 93.04"/><polygon class="cls-5" points="993.25 206.96 1019.17 206.96 1092.18 112.95 1066.27 112.95 993.25 206.96"/><rect class="cls-31" x="900" width="300" height="300"/><circle class="cls-3" cx="1050" cy="150" r="134.86"/><polygon class="cls-4" points="1066.27 112.95 1027.12 206.96 1053.03 206.96 1092.18 112.95 1066.27 112.95"/><rect class="cls-4" x="993.25" y="93.04" width="20.47" height="113.91"/><polygon class="cls-5" points="950.52 93.04 934.62 113.51 934.62 113.51 1056.09 113.51 1071.98 93.04 950.52 93.04"/><polygon class="cls-5" points="993.25 206.96 1019.17 206.96 1092.18 112.95 1066.27 112.95 993.25 206.96"/><polygon class="cls-6" points="1027.12 206.96 1053.03 206.96 1126.04 112.95 1100.13 112.95 1027.12 206.96"/><polygon class="cls-5" points="950.52 93.04 934.62 113.51 934.62 113.51 1056.09 113.51 1071.98 93.04 950.52 93.04"/><path class="cls-7" d="M1045.14,56.52a6.15,6.15,0,0,1-.06.87,6.17,6.17,0,0,1-6.13,5.32,7.2,7.2,0,0,1-1-.08,6.2,6.2,0,0,1-5.08-5.21,6.56,6.56,0,0,1-.07-.9,6.18,6.18,0,0,1,4.8-6h0a4.94,4.94,0,0,1,.87-.14l.53,0A6.19,6.19,0,0,1,1045.14,56.52Z"/><circle class="cls-7" cx="1043.81" cy="60.26" r="3.13"/><path class="cls-32" d="M989.35,85.61a5.77,5.77,0,0,1-1,1.17"/><path class="cls-33" d="M991.45,82.12v0"/><path class="cls-32" d="M989.35,85.61a5.77,5.77,0,0,1-1,1.17"/><path class="cls-34" d="M995.39,81.41h0a15.5,15.5,0,0,1-3.94.71v0"/><path class="cls-32" d="M989.35,85.61a5.77,5.77,0,0,1-1,1.17"/><path class="cls-35" d="M968.46,23.24l-.06.17-.12.14Z"/><path class="cls-35" d="M968.46,23.24l-.06.17-.12.14Z"/><path class="cls-36" d="M1023.61,68.3s-.75,12.52-.62,15.83,9.07,17.44,9.88,22.4a43.73,43.73,0,0,0,4.25,2.37c.38,0,9,.32,9,.32l2.25-.69-5.25-2.19-3.76-.5-1.94-1s-7.44-19.65-6.88-21.9l3.76-16.26A7.79,7.79,0,0,0,1023.61,68.3Z"/><path class="cls-37" d="M1018.61,77.63a64.71,64.71,0,0,1-4.26,7.13l-4.56,10.69-7.26,2.88-.44,6.13s.06,1.25.94,1.5c0,0,1.25.19,1.44,0,0,0-1.25-.43-1-1.25l.94-3.81,6.25-.94s2.19-.94,2.75-2.07L1023,82.13l.28-7.13Z"/><path class="cls-38" d="M1004.48,37.64a21.4,21.4,0,0,0-9.36-13.13,15.34,15.34,0,0,0-5.4-1.24H989a15.52,15.52,0,0,0-9,2.86,15.82,15.82,0,0,0-3.88,4,1.22,1.22,0,0,0-.07.17,24.67,24.67,0,0,0-1.76,8.14,24.89,24.89,0,0,0,13.32,23.21,15.43,15.43,0,0,1,5.72-2.39,24.85,24.85,0,0,1-8.15-5.43l-.62-.64h0a15.52,15.52,0,0,1,1.36-27.47,14.84,14.84,0,0,1,1.89,0,15.63,15.63,0,0,1,5.45,1.25c3.69,1.08,6.47,6.66,6.47,6.66,3,2.73,7.21,30.14,7.21,30.14a1.52,1.52,0,0,0,2.67.13C1010,60.19,1004.48,37.64,1004.48,37.64Z"/><path class="cls-39" d="M988.84,55.76h0c.13,12.88,13,21.64,13,21.64l-1.32-17.72A40,40,0,0,1,988.84,55.76Z"/><path class="cls-40" d="M1038.6,55.51a24.89,24.89,0,0,1-36.76,21.89,35.74,35.74,0,0,1-10.93-12.84,21.49,21.49,0,0,1-2.08-8.8h0a40,40,0,0,0,11.68,3.92,40.56,40.56,0,0,0,6.84.58,40.21,40.21,0,0,0,19-4.75,28.74,28.74,0,0,0,3.75-.23.05.05,0,0,0,0,0,17.53,17.53,0,0,1,4.7-3.63h0a6.11,6.11,0,0,1,2.33-1.1h0l.17,0a4.87,4.87,0,0,1,.65-.1.06.06,0,0,1,.06.05A24.82,24.82,0,0,1,1038.6,55.51Z"/><path class="cls-41" d="M1037.55,53.49a24.89,24.89,0,0,1-36.76,21.89,36.47,36.47,0,0,1-9.88-10.82,21.49,21.49,0,0,1-2.08-8.8h0a40,40,0,0,0,11.68,3.92,40.56,40.56,0,0,0,6.84.58,40.21,40.21,0,0,0,19-4.75,28.74,28.74,0,0,0,3.75-.23.05.05,0,0,0,0,0,17.53,17.53,0,0,1,4.7-3.63h0a6.11,6.11,0,0,1,2.33-1.1h0l.17,0A24.62,24.62,0,0,1,1037.55,53.49Z"/><path class="cls-42" d="M995.77,102c-4.75,1.88-9.88-.41-9.88-.41,5-3.22,12-20.2,12-20.2,0-.36.05-.72.05-1.08a15.54,15.54,0,0,0,3.89-2.93s-12.87-8.76-13-21.64h0a40.26,40.26,0,0,1-5-3.06l5,12.71,1.87,19.92a23.13,23.13,0,0,1-4.5,3.72c-1.45,5.1-6.14,10.53-6.14,10.53-1,3.82,4.44,5.88,4.44,5.88,2.57,1.13,14.52-.93,14.52-.93C999,103.46,995.77,102,995.77,102Z"/><path class="cls-43" d="M980.35,78.2c.24.27.43.52.6.75l.12-.14C980.83,78.62,980.59,78.41,980.35,78.2Z"/><path class="cls-44" d="M968.27,84h0c-.36,0-.71-.08-1.06-.13h0C967.56,83.9,967.92,84,968.27,84Z"/><path class="cls-45" d="M970.85,84l.23,0-.17,0Z"/><path class="cls-46" d="M971.55,83.88l.18,0-.13,0Z"/><path class="cls-47" d="M978.17,91.43l.31,0h0Z"/><path class="cls-48" d="M978.48,91.41l.32,0h-.06Z"/><path class="cls-49" d="M979.07,91.35H979l-.2,0Z"/><path class="cls-50" d="M986.35,88.49h0a15.39,15.39,0,0,1-6.53,2.74,4.21,4.21,0,0,0,.49-.09l.11,0,.21,0,.3-.07h0l.29-.07.24-.07.35-.1.28-.09.35-.12.21-.08h0l.23-.09.05,0,.53-.22,0,0,.26-.11.27-.13.53-.28.26-.14.26-.15.25-.15h0l.24-.16.24-.16.25-.17Z"/><path class="cls-51" d="M979.46,91.3l.36-.06h0l-.18,0Z"/><path class="cls-52" d="M990.71,85.33a22.91,22.91,0,0,1-4.48,3.7l0,0c0-.19.1-.37.14-.55h0l-.24.17-.25.17-.24.16-.24.16h0l-.25.15-.26.15-.26.14-.53.28-.27.13-.26.11,0,0-.53.22-.05,0-.23.09h0l-.21.08-.35.12-.28.09-.35.1-.24.07-.29.07h0l-.3.07-.1,0-.11,0-.11,0h0l-.2,0h0l-.26,0h0l-.09,0h-.09l-.14,0h-.08l-.21,0H979l-.2,0h-.06l-.26,0h0l-.28,0h0l-.3,0h-1.5l-.21,0h-.06l-.25,0-.18,0-.26,0-.26,0-.24,0h0l-.26,0-.21,0h0l-.79-.16-.25-.07-.25-.06-.74-.23-.17-.05a15.75,15.75,0,0,1-1.85-.78l-.16-.08-.31-.16-.26-.15c-.2-.11-.39-.22-.57-.34l-.2-.12h0l-.24-.16-.5-.34c-.31-.23-.6-.46-.9-.71h0V83.85h0c.35.05.7.1,1.06.13H971l.26,0h.3l.18,0h0l.17,0h.11l.14,0,.29,0h0l.23,0s0,0,0,0l.24,0,.29-.07.36-.09h0c3.72-.34,7.61-1,7.41-2,0,0,1.49-.25-.11-2.45h0l.12-.14c-.24-.19-.48-.4-.72-.61h0c-.24-.26-12.6-14.14,3.49-25.5h0l5,12.7Z"/><path class="cls-53" d="M986.37,88.49h0A15.28,15.28,0,0,1,980.93,91h0l-.3.07-.1,0-.22,0h0l-.2,0h0l-.23,0h0l-.09,0h-.09l-.14,0h-.08l-.21,0H979l-.2,0h-.06l-.26,0h0l-.28,0h0l-.3,0h-1.5l-.21,0h-.06l-.25,0-.18,0-.26,0-.5-.06h0l-.47-.08h0a15.51,15.51,0,0,1-6.28-2.7c-.31-.23-.62-.47-.91-.72h0c0,.31-.08.63-.11.94s-.05.9-.05,1.35A15.45,15.45,0,0,0,969.2,98a16,16,0,0,0,1.15,1.67,2.62,2.62,0,0,1-1.14,1.93,14.66,14.66,0,0,1-2.45-1.84,15.44,15.44,0,0,1-5-10.25c0-.39,0-.79,0-1.19V88a15.41,15.41,0,0,1,1.12-5.49l.44.2a15.19,15.19,0,0,0,3.93,1.12h0c.35.05.71.1,1.06.13h2.64l.34,0h.35a16.91,16.91,0,0,0,2-.42h0c3.72-.34,7.61-1,7.41-2,0,0,1.49-.25-.11-2.45h0l.13-.14c-.25-.19-.49-.4-.72-.61,0,0-12.75-14,3.47-25.5h0l5,12.7,1.87,19.93"/><rect class="cls-30" x="600" width="300" height="300"/><circle class="cls-3" cx="750" cy="150" r="134.86"/><rect class="cls-4" x="693.25" y="93.04" width="20.47" height="113.91"/><polygon class="cls-5" points="650.52 93.04 634.62 113.51 634.62 113.51 756.09 113.51 771.98 93.04 650.52 93.04"/><polygon class="cls-5" points="693.25 206.96 719.17 206.96 792.18 112.95 766.27 112.95 693.25 206.96"/><polygon class="cls-5" points="650.52 93.04 634.62 113.51 634.62 113.51 756.09 113.51 771.98 93.04 650.52 93.04"/><path class="cls-7" d="M745.14,56.52a6.15,6.15,0,0,1-.06.87A6.17,6.17,0,0,1,739,62.71a7.2,7.2,0,0,1-1.05-.08,6.2,6.2,0,0,1-5.08-5.21,6.56,6.56,0,0,1-.07-.9,6.18,6.18,0,0,1,4.8-6h0a4.94,4.94,0,0,1,.87-.14l.53,0A6.19,6.19,0,0,1,745.14,56.52Z"/><circle class="cls-7" cx="743.81" cy="60.26" r="3.13"/><path class="cls-54" d="M689.35,85.61a5.77,5.77,0,0,1-1,1.17"/><path class="cls-55" d="M691.45,82.12v0"/><path class="cls-54" d="M689.35,85.61a5.77,5.77,0,0,1-1,1.17"/><path class="cls-56" d="M695.39,81.41h0a15.5,15.5,0,0,1-3.94.71v0"/><path class="cls-54" d="M689.35,85.61a5.77,5.77,0,0,1-1,1.17"/><path class="cls-57" d="M668.46,23.24l-.06.17-.12.14Z"/><path class="cls-57" d="M668.46,23.24l-.06.17-.12.14Z"/><path class="cls-58" d="M723.61,68.3s-.75,12.52-.62,15.83,9.07,17.44,9.88,22.4a43.73,43.73,0,0,0,4.25,2.37c.38,0,9,.32,9,.32l2.25-.69-5.25-2.19-3.76-.5-1.94-1s-7.44-19.65-6.88-21.9l3.76-16.26A7.79,7.79,0,0,0,723.61,68.3Z"/><path class="cls-59" d="M718.61,77.63a64.71,64.71,0,0,1-4.26,7.13l-4.56,10.69-7.26,2.88-.44,6.13s.06,1.25.94,1.5c0,0,1.25.19,1.44,0,0,0-1.25-.43-1-1.25l.94-3.81,6.25-.94s2.19-.94,2.75-2.07L723,82.13l.28-7.13Z"/><path class="cls-60" d="M704.48,37.64a21.4,21.4,0,0,0-9.36-13.13,15.34,15.34,0,0,0-5.4-1.24H689a15.52,15.52,0,0,0-9,2.86,15.82,15.82,0,0,0-3.88,4,1.22,1.22,0,0,0-.07.17,24.67,24.67,0,0,0-1.76,8.14,24.89,24.89,0,0,0,13.32,23.21,15.43,15.43,0,0,1,5.72-2.39,24.85,24.85,0,0,1-8.15-5.43l-.62-.64h0a15.52,15.52,0,0,1,1.36-27.47,14.84,14.84,0,0,1,1.89,0,15.63,15.63,0,0,1,5.45,1.25c3.69,1.08,6.47,6.66,6.47,6.66,3,2.73,7.21,30.14,7.21,30.14a1.52,1.52,0,0,0,2.67.13C710,60.19,704.48,37.64,704.48,37.64Z"/><path class="cls-61" d="M688.84,55.76h0c.13,12.88,13,21.64,13,21.64l-1.32-17.72A40,40,0,0,1,688.84,55.76Z"/><path class="cls-62" d="M738.6,55.51A24.89,24.89,0,0,1,701.84,77.4a35.74,35.74,0,0,1-10.93-12.84,21.49,21.49,0,0,1-2.08-8.8h0a40,40,0,0,0,11.68,3.92,40.56,40.56,0,0,0,6.84.58,40.21,40.21,0,0,0,19-4.75,28.74,28.74,0,0,0,3.75-.23.05.05,0,0,0,0,0,17.53,17.53,0,0,1,4.7-3.63h0a6.11,6.11,0,0,1,2.33-1.1h0l.17,0a4.87,4.87,0,0,1,.65-.1.06.06,0,0,1,.06.05A24.82,24.82,0,0,1,738.6,55.51Z"/><path class="cls-63" d="M737.55,53.49a24.89,24.89,0,0,1-36.76,21.89,36.47,36.47,0,0,1-9.88-10.82,21.49,21.49,0,0,1-2.08-8.8h0a40,40,0,0,0,11.68,3.92,40.56,40.56,0,0,0,6.84.58,40.21,40.21,0,0,0,19-4.75,28.74,28.74,0,0,0,3.75-.23.05.05,0,0,0,0,0,17.53,17.53,0,0,1,4.7-3.63h0a6.11,6.11,0,0,1,2.33-1.1h0l.17,0A24.62,24.62,0,0,1,737.55,53.49Z"/><path class="cls-64" d="M695.77,102c-4.75,1.88-9.88-.41-9.88-.41,5-3.22,12-20.2,12-20.2,0-.36.05-.72.05-1.08a15.54,15.54,0,0,0,3.89-2.93s-12.87-8.76-13-21.64h0a40.26,40.26,0,0,1-5-3.06l5,12.71,1.87,19.92a23.13,23.13,0,0,1-4.5,3.72c-1.45,5.1-6.14,10.53-6.14,10.53-1,3.82,4.44,5.88,4.44,5.88,2.57,1.13,14.52-.93,14.52-.93C699,103.46,695.77,102,695.77,102Z"/><path class="cls-65" d="M680.35,78.2c.24.27.43.52.6.75l.12-.14C680.83,78.62,680.59,78.41,680.35,78.2Z"/><path class="cls-66" d="M668.27,84h0c-.36,0-.71-.08-1.06-.13h0C667.56,83.9,667.92,84,668.27,84Z"/><path class="cls-67" d="M670.85,84l.23,0-.17,0Z"/><path class="cls-68" d="M671.55,83.88l.18,0-.13,0Z"/><path class="cls-69" d="M678.17,91.43l.31,0h0Z"/><path class="cls-70" d="M678.48,91.41l.32,0h-.06Z"/><path class="cls-71" d="M679.07,91.35H679l-.2,0Z"/><path class="cls-72" d="M686.35,88.49h0a15.39,15.39,0,0,1-6.53,2.74,4.21,4.21,0,0,0,.49-.09l.11,0,.21,0,.3-.07h0l.29-.07.24-.07.35-.1.28-.09.35-.12.21-.08h0l.23-.09.05,0,.53-.22,0,0,.26-.11.27-.13.53-.28.26-.14.26-.15.25-.15h0l.24-.16.24-.16.25-.17Z"/><path class="cls-73" d="M679.46,91.3l.36-.06h0l-.18,0Z"/><path class="cls-74" d="M690.71,85.33a22.91,22.91,0,0,1-4.48,3.7l0,0c0-.19.1-.37.14-.55h0l-.24.17-.25.17-.24.16-.24.16h0l-.25.15-.26.15-.26.14-.53.28-.27.13-.26.11,0,0-.53.22-.05,0-.23.09h0l-.21.08-.35.12-.28.09-.35.1-.24.07-.29.07h0l-.3.07-.1,0-.11,0-.11,0h0l-.2,0h0l-.26,0h0l-.09,0h-.09l-.14,0h-.08l-.21,0H679l-.2,0h-.06l-.26,0h0l-.28,0h0l-.3,0h-1.5l-.21,0h-.06l-.25,0-.18,0-.26,0-.26,0-.24,0h0l-.26,0-.21,0h0l-.79-.16-.25-.07-.25-.06-.74-.23-.17-.05a15.75,15.75,0,0,1-1.85-.78l-.16-.08-.31-.16-.26-.15c-.2-.11-.39-.22-.57-.34l-.2-.12h0l-.24-.16-.5-.34c-.31-.23-.6-.46-.9-.71h0V83.85h0c.35.05.7.1,1.06.13H671l.26,0h.3l.18,0h0l.17,0h.11l.14,0,.29,0h0l.23,0s0,0,0,0l.24,0,.29-.07.36-.09h0c3.72-.34,7.61-1,7.41-2,0,0,1.49-.25-.11-2.45h0l.12-.14c-.24-.19-.48-.4-.72-.61h0c-.24-.26-12.6-14.14,3.49-25.5h0l5,12.7Z"/><path class="cls-75" d="M686.37,88.49h0A15.28,15.28,0,0,1,680.93,91h0l-.3.07-.1,0-.22,0h0l-.2,0h0l-.23,0h0l-.09,0h-.09l-.14,0h-.08l-.21,0H679l-.2,0h-.06l-.26,0h0l-.28,0h0l-.3,0h-1.5l-.21,0h-.06l-.25,0-.18,0-.26,0-.5-.06h0l-.47-.08h0a15.51,15.51,0,0,1-6.28-2.7c-.31-.23-.62-.47-.91-.72h0c0,.31-.08.63-.11.94s-.05.9-.05,1.35A15.45,15.45,0,0,0,669.2,98a16,16,0,0,0,1.15,1.67,2.62,2.62,0,0,1-1.14,1.93,14.66,14.66,0,0,1-2.45-1.84,15.44,15.44,0,0,1-5-10.25c0-.39,0-.79,0-1.19V88a15.41,15.41,0,0,1,1.12-5.49l.44.2a15.19,15.19,0,0,0,3.93,1.12h0c.35.05.71.1,1.06.13h2.64l.34,0h.35a16.91,16.91,0,0,0,2-.42h0c3.72-.34,7.61-1,7.41-2,0,0,1.49-.25-.11-2.45h0l.13-.14c-.25-.19-.49-.4-.72-.61,0,0-12.75-14,3.47-25.5h0l5,12.7,1.87,19.93"/><rect class="cls-76" x="300" width="300" height="300"/><circle class="cls-3" cx="450" cy="150" r="134.86"/><rect class="cls-4" x="393.25" y="93.04" width="20.47" height="113.91"/><polygon class="cls-5" points="350.52 93.04 334.62 113.51 334.62 113.51 456.08 113.51 471.98 93.04 350.52 93.04"/><polygon class="cls-5" points="393.25 206.96 420.77 113.51 446.68 113.51 419.17 206.96 393.25 206.96"/><polygon class="cls-5" points="350.52 93.04 334.62 113.51 334.62 113.51 456.08 113.51 471.98 93.04 350.52 93.04"/><path class="cls-7" d="M445.14,56.52a6.15,6.15,0,0,1-.06.87A6.17,6.17,0,0,1,439,62.71a7.2,7.2,0,0,1-1.05-.08,6.2,6.2,0,0,1-5.08-5.21,6.56,6.56,0,0,1-.07-.9,6.18,6.18,0,0,1,4.8-6h0a4.94,4.94,0,0,1,.87-.14l.53,0A6.19,6.19,0,0,1,445.14,56.52Z"/><circle class="cls-7" cx="443.81" cy="60.26" r="3.13"/><path class="cls-77" d="M389.35,85.61a5.77,5.77,0,0,1-1,1.17"/><path class="cls-78" d="M391.45,82.12v0"/><path class="cls-77" d="M389.35,85.61a5.77,5.77,0,0,1-1,1.17"/><path class="cls-79" d="M395.39,81.41h0a15.5,15.5,0,0,1-3.94.71v0"/><path class="cls-77" d="M389.35,85.61a5.77,5.77,0,0,1-1,1.17"/><path class="cls-80" d="M368.46,23.24l-.06.17-.12.14Z"/><path class="cls-80" d="M368.46,23.24l-.06.17-.12.14Z"/><path class="cls-81" d="M423.61,68.3s-.75,12.52-.62,15.83,9.07,17.44,9.88,22.4a43.73,43.73,0,0,0,4.25,2.37c.38,0,8.95.32,8.95.32l2.25-.69-5.25-2.19-3.76-.5-1.94-1s-7.44-19.65-6.88-21.9l3.76-16.26A7.79,7.79,0,0,0,423.61,68.3Z"/><path class="cls-82" d="M418.61,77.63a64.71,64.71,0,0,1-4.26,7.13l-4.56,10.69-7.26,2.88-.44,6.13s.06,1.25.94,1.5c0,0,1.25.19,1.44,0,0,0-1.25-.43-1-1.25l.94-3.81,6.25-.94s2.19-.94,2.75-2.07L423,82.13l.28-7.13Z"/><path class="cls-83" d="M404.48,37.64a21.4,21.4,0,0,0-9.36-13.13,15.34,15.34,0,0,0-5.4-1.24H389a15.52,15.52,0,0,0-9,2.86,15.82,15.82,0,0,0-3.88,4,1.22,1.22,0,0,0-.07.17,24.67,24.67,0,0,0-1.76,8.14,24.89,24.89,0,0,0,13.32,23.21,15.43,15.43,0,0,1,5.72-2.39,24.85,24.85,0,0,1-8.15-5.43l-.62-.64h0a15.52,15.52,0,0,1,1.36-27.47,14.84,14.84,0,0,1,1.89,0,15.63,15.63,0,0,1,5.45,1.25c3.69,1.08,6.47,6.66,6.47,6.66,3.05,2.73,7.21,30.14,7.21,30.14a1.52,1.52,0,0,0,2.67.13C410,60.19,404.48,37.64,404.48,37.64Z"/><path class="cls-84" d="M388.84,55.76h0c.13,12.88,13,21.64,13,21.64l-1.32-17.72A40,40,0,0,1,388.84,55.76Z"/><path class="cls-85" d="M438.6,55.51A24.89,24.89,0,0,1,401.84,77.4a35.74,35.74,0,0,1-10.93-12.84,21.49,21.49,0,0,1-2.08-8.8h0a40,40,0,0,0,11.68,3.92,40.56,40.56,0,0,0,6.84.58,40.21,40.21,0,0,0,19-4.75,28.74,28.74,0,0,0,3.75-.23l0,0a17.53,17.53,0,0,1,4.7-3.63h0a6.11,6.11,0,0,1,2.33-1.1h0l.17,0a4.87,4.87,0,0,1,.65-.1.06.06,0,0,1,.06.05A24.82,24.82,0,0,1,438.6,55.51Z"/><path class="cls-86" d="M437.55,53.49a24.89,24.89,0,0,1-36.76,21.89,36.47,36.47,0,0,1-9.88-10.82,21.49,21.49,0,0,1-2.08-8.8h0a40,40,0,0,0,11.68,3.92,40.56,40.56,0,0,0,6.84.58,40.21,40.21,0,0,0,19-4.75,28.74,28.74,0,0,0,3.75-.23l0,0a17.53,17.53,0,0,1,4.7-3.63h0a6.11,6.11,0,0,1,2.33-1.1h0l.17,0A24.62,24.62,0,0,1,437.55,53.49Z"/><path class="cls-87" d="M395.77,102c-4.75,1.88-9.88-.41-9.88-.41,5-3.22,12-20.2,12-20.2,0-.36.05-.72.05-1.08a15.54,15.54,0,0,0,3.89-2.93s-12.87-8.76-13-21.64h0a40.26,40.26,0,0,1-5-3.06l5,12.71,1.87,19.92a23.13,23.13,0,0,1-4.5,3.72c-1.45,5.1-6.14,10.53-6.14,10.53-1,3.82,4.44,5.88,4.44,5.88,2.57,1.13,14.52-.93,14.52-.93C399,103.46,395.77,102,395.77,102Z"/><path class="cls-88" d="M380.35,78.2c.24.27.43.52.6.75l.12-.14C380.83,78.62,380.59,78.41,380.35,78.2Z"/><path class="cls-89" d="M368.27,84h0c-.36,0-.71-.08-1.06-.13h0C367.56,83.9,367.92,84,368.27,84Z"/><path class="cls-90" d="M370.85,84l.23,0-.17,0Z"/><path class="cls-91" d="M371.55,83.88l.18,0-.13,0Z"/><path class="cls-92" d="M378.17,91.43l.31,0h0Z"/><path class="cls-93" d="M378.48,91.41l.32,0h-.06Z"/><path class="cls-94" d="M379.07,91.35H379l-.2,0Z"/><path class="cls-95" d="M386.35,88.49h0a15.39,15.39,0,0,1-6.53,2.74,4.21,4.21,0,0,0,.49-.09l.11,0,.21,0,.3-.07h0l.29-.07.24-.07.35-.1.28-.09.35-.12.21-.08h0l.23-.09.05,0,.53-.22,0,0,.26-.11.27-.13.53-.28.26-.14.26-.15.25-.15h0l.24-.16.24-.16.25-.17Z"/><path class="cls-96" d="M379.46,91.3l.36-.06h0l-.18,0Z"/><path class="cls-97" d="M390.71,85.33a22.91,22.91,0,0,1-4.48,3.7l0,0c.05-.19.1-.37.14-.55h0l-.24.17-.25.17-.24.16-.24.16h0l-.25.15-.26.15-.26.14-.53.28-.27.13-.26.11,0,0-.53.22-.05,0-.23.09h0l-.21.08-.35.12-.28.09-.35.1-.24.07-.29.07h0l-.3.07-.1,0-.11,0-.11,0h0l-.2,0h0l-.26,0h0l-.09,0h-.09l-.14,0h-.08l-.21,0H379l-.2,0h-.06l-.26,0h0l-.28,0h0l-.3,0h-1.5l-.21,0h-.06l-.25,0-.18,0-.26,0-.26,0-.24,0h0l-.26,0-.21,0h0l-.79-.16-.25-.07-.25-.06-.74-.23-.17-.05a15.75,15.75,0,0,1-1.85-.78l-.16-.08-.31-.16-.26-.15c-.2-.11-.39-.22-.57-.34l-.2-.12h0l-.24-.16-.5-.34c-.31-.23-.6-.46-.9-.71h0V83.85h0c.35.05.7.1,1.06.13H371l.26,0h.3l.18,0h0l.17,0h.11l.14,0,.29,0h0l.23,0s0,0,0,0l.24,0,.29-.07.36-.09h0c3.72-.34,7.61-1,7.41-2,0,0,1.49-.25-.11-2.45h0l.12-.14c-.24-.19-.48-.4-.72-.61h0c-.24-.26-12.6-14.14,3.49-25.5h0l5,12.7Z"/><path class="cls-98" d="M386.37,88.49h0A15.28,15.28,0,0,1,380.93,91h0l-.3.07-.1,0-.22,0h0l-.2,0h0l-.23,0h0l-.09,0h-.09l-.14,0h-.08l-.21,0H379l-.2,0h-.06l-.26,0h0l-.28,0h0l-.3,0h-1.5l-.21,0h-.06l-.25,0-.18,0-.26,0-.5-.06h0l-.47-.08h0a15.51,15.51,0,0,1-6.28-2.7c-.31-.23-.62-.47-.91-.72h0c0,.31-.08.63-.11.94s-.05.9-.05,1.35A15.45,15.45,0,0,0,369.2,98a16,16,0,0,0,1.15,1.67,2.62,2.62,0,0,1-1.14,1.93,14.66,14.66,0,0,1-2.45-1.84,15.44,15.44,0,0,1-5-10.25c0-.39,0-.79,0-1.19V88a15.41,15.41,0,0,1,1.12-5.49l.44.2a15.19,15.19,0,0,0,3.93,1.12h0c.35.05.71.1,1.06.13h2.64l.34,0h.35a16.91,16.91,0,0,0,2-.42h0c3.72-.34,7.61-1,7.41-2,0,0,1.49-.25-.11-2.45h0l.13-.14c-.25-.19-.49-.4-.72-.61,0,0-12.75-14,3.47-25.5h0l5,12.7,1.87,19.93"/><rect class="cls-99" width="300" height="300"/><circle class="cls-3" cx="150" cy="150" r="134.86"/><rect class="cls-5" x="93.25" y="93.04" width="20.47" height="113.91"/><polygon class="cls-5" points="50.52 93.04 34.62 113.51 34.62 113.51 156.09 113.51 171.98 93.04 50.52 93.04"/><polygon class="cls-5" points="50.52 93.04 34.62 113.51 34.62 113.51 156.09 113.51 171.98 93.04 50.52 93.04"/><path class="cls-7" d="M145.14,56.52a6.15,6.15,0,0,1-.06.87A6.17,6.17,0,0,1,139,62.71a7.2,7.2,0,0,1-1-.08,6.2,6.2,0,0,1-5.08-5.21,6.56,6.56,0,0,1-.07-.9,6.18,6.18,0,0,1,4.8-6h0a4.94,4.94,0,0,1,.87-.14l.53,0A6.19,6.19,0,0,1,145.14,56.52Z"/><circle class="cls-7" cx="143.81" cy="60.26" r="3.13"/><path class="cls-100" d="M89.35,85.61a5.77,5.77,0,0,1-1,1.17"/><path class="cls-101" d="M91.45,82.12v0"/><path class="cls-100" d="M89.35,85.61a5.77,5.77,0,0,1-1,1.17"/><path class="cls-102" d="M95.39,81.41h0a15.5,15.5,0,0,1-3.94.71v0"/><path class="cls-100" d="M89.35,85.61a5.77,5.77,0,0,1-1,1.17"/><path class="cls-103" d="M68.46,23.24l-.06.17-.12.14Z"/><path class="cls-103" d="M68.46,23.24l-.06.17-.12.14Z"/><path class="cls-104" d="M123.61,68.3s-.75,12.52-.62,15.83,9.07,17.44,9.88,22.4a43.73,43.73,0,0,0,4.25,2.37c.38,0,8.95.32,8.95.32l2.25-.69-5.25-2.19-3.76-.5-1.94-1s-7.44-19.65-6.88-21.9l3.76-16.26A7.79,7.79,0,0,0,123.61,68.3Z"/><path class="cls-105" d="M118.61,77.63a64.71,64.71,0,0,1-4.26,7.13l-4.56,10.69-7.26,2.88-.44,6.13s.06,1.25.94,1.5c0,0,1.25.19,1.44,0,0,0-1.25-.43-1-1.25l.94-3.81,6.25-.94s2.19-.94,2.75-2.07L123,82.13l.28-7.13Z"/><path class="cls-106" d="M104.48,37.64a21.4,21.4,0,0,0-9.36-13.13,15.34,15.34,0,0,0-5.4-1.24H89a15.52,15.52,0,0,0-9,2.86,15.82,15.82,0,0,0-3.88,4,1.22,1.22,0,0,0-.07.17,24.67,24.67,0,0,0-1.76,8.14A24.89,24.89,0,0,0,87.62,61.63a15.43,15.43,0,0,1,5.72-2.39,24.85,24.85,0,0,1-8.15-5.43l-.62-.64h0A15.52,15.52,0,0,1,85.93,25.7a14.84,14.84,0,0,1,1.89,0,15.63,15.63,0,0,1,5.45,1.25C97,28,99.74,33.58,99.74,33.58c3.05,2.73,7.21,30.14,7.21,30.14a1.52,1.52,0,0,0,2.67.13C110,60.19,104.48,37.64,104.48,37.64Z"/><path class="cls-107" d="M88.84,55.76h0c.13,12.88,13,21.64,13,21.64l-1.32-17.72A40,40,0,0,1,88.84,55.76Z"/><path class="cls-108" d="M138.6,55.51A24.89,24.89,0,0,1,101.84,77.4,35.74,35.74,0,0,1,90.91,64.56a21.49,21.49,0,0,1-2.08-8.8h0a40,40,0,0,0,11.68,3.92,40.56,40.56,0,0,0,6.84.58,40.21,40.21,0,0,0,19-4.75,28.74,28.74,0,0,0,3.75-.23l0,0a17.53,17.53,0,0,1,4.7-3.63h0a6.11,6.11,0,0,1,2.33-1.1h0l.17,0a4.87,4.87,0,0,1,.65-.1.06.06,0,0,1,.06.05A24.82,24.82,0,0,1,138.6,55.51Z"/><path class="cls-109" d="M137.55,53.49a24.89,24.89,0,0,1-36.76,21.89,36.47,36.47,0,0,1-9.88-10.82,21.49,21.49,0,0,1-2.08-8.8h0a40,40,0,0,0,11.68,3.92,40.56,40.56,0,0,0,6.84.58,40.21,40.21,0,0,0,19-4.75,28.74,28.74,0,0,0,3.75-.23l0,0a17.53,17.53,0,0,1,4.7-3.63h0a6.11,6.11,0,0,1,2.33-1.1h0l.17,0A24.62,24.62,0,0,1,137.55,53.49Z"/><path class="cls-110" d="M95.77,102c-4.75,1.88-9.88-.41-9.88-.41,5-3.22,12-20.2,12-20.2,0-.36,0-.72,0-1.08a15.54,15.54,0,0,0,3.89-2.93S89,68.64,88.84,55.76h0a40.26,40.26,0,0,1-5-3.06l5,12.71,1.87,19.92a23.13,23.13,0,0,1-4.5,3.72c-1.45,5.1-6.14,10.53-6.14,10.53-1,3.82,4.44,5.88,4.44,5.88,2.57,1.13,14.52-.93,14.52-.93C99,103.46,95.77,102,95.77,102Z"/><path class="cls-111" d="M80.35,78.2c.24.27.43.52.6.75l.12-.14C80.83,78.62,80.59,78.41,80.35,78.2Z"/><path class="cls-112" d="M68.27,84h0c-.36,0-.71-.08-1.06-.13h0C67.56,83.9,67.92,84,68.27,84Z"/><path class="cls-113" d="M70.85,84l.23,0-.17,0Z"/><path class="cls-114" d="M71.55,83.88l.18,0-.13,0Z"/><path class="cls-115" d="M78.17,91.43l.31,0h0Z"/><path class="cls-116" d="M78.48,91.41l.32,0h-.06Z"/><path class="cls-117" d="M79.07,91.35H79l-.2,0Z"/><path class="cls-118" d="M86.35,88.49h0a15.39,15.39,0,0,1-6.53,2.74,4.21,4.21,0,0,0,.49-.09l.11,0,.21,0,.3-.07h0l.29-.07.24-.07.35-.1.28-.09.35-.12.21-.08h0l.23-.09,0,0,.53-.22,0,0,.26-.11.27-.13.53-.28.26-.14.26-.15.25-.15h0l.24-.16.24-.16.25-.17Z"/><path class="cls-119" d="M79.46,91.3l.36-.06h0l-.18,0Z"/><path class="cls-120" d="M90.71,85.33A22.91,22.91,0,0,1,86.23,89l0,0c.05-.19.1-.37.14-.55h0l-.24.17-.25.17-.24.16-.24.16h0l-.25.15-.26.15-.26.14-.53.28-.27.13-.26.11,0,0-.53.22,0,0-.23.09h0l-.21.08-.35.12-.28.09-.35.1-.24.07-.29.07h0l-.3.07-.1,0-.11,0-.11,0h0l-.2,0h0l-.26,0h0l-.09,0H79.6l-.14,0h-.08l-.21,0H79l-.2,0h-.06l-.26,0h0l-.28,0h0l-.3,0h-1.5l-.21,0h-.06l-.25,0-.18,0-.26,0-.26,0-.24,0h0l-.26,0-.21,0h0L73.59,91,73.34,91l-.25-.06-.74-.23-.17-.05a15.75,15.75,0,0,1-1.85-.78l-.16-.08-.31-.16-.26-.15c-.2-.11-.39-.22-.57-.34l-.2-.12h0l-.24-.16-.5-.34c-.31-.23-.6-.46-.9-.71h0V83.85h0c.35.05.7.1,1.06.13H71l.26,0h.3l.18,0h0l.17,0h.11l.14,0,.29,0h0l.23,0s0,0,0,0l.24,0,.29-.07.36-.09h0c3.72-.34,7.61-1,7.41-2,0,0,1.49-.25-.11-2.45h0l.12-.14c-.24-.19-.48-.4-.72-.61h0c-.24-.26-12.6-14.14,3.49-25.5h0l5,12.7Z"/><path class="cls-121" d="M86.37,88.49h0A15.28,15.28,0,0,1,80.93,91h0l-.3.07-.1,0-.22,0h0l-.2,0h0l-.23,0h0l-.09,0H79.6l-.14,0h-.08l-.21,0H79l-.2,0h-.06l-.26,0h0l-.28,0h0l-.3,0h-1.5l-.21,0h-.06l-.25,0-.18,0-.26,0-.5-.06h0l-.47-.08h0a15.51,15.51,0,0,1-6.28-2.7c-.31-.23-.62-.47-.91-.72h0c0,.31-.08.63-.11.94s0,.9,0,1.35A15.45,15.45,0,0,0,69.2,98a16,16,0,0,0,1.15,1.67,2.62,2.62,0,0,1-1.14,1.93,14.66,14.66,0,0,1-2.45-1.84,15.44,15.44,0,0,1-5-10.25c0-.39,0-.79,0-1.19V88a15.41,15.41,0,0,1,1.12-5.49l.44.2a15.19,15.19,0,0,0,3.93,1.12h0c.35.05.71.1,1.06.13h2.64l.34,0h.35a16.91,16.91,0,0,0,2.05-.42h0c3.72-.34,7.61-1,7.41-2,0,0,1.49-.25-.11-2.45h0l.13-.14c-.25-.19-.49-.4-.72-.61,0,0-12.75-14,3.47-25.5h0l5,12.7,1.87,19.93"/></g></g></svg>
